<svg xmlns="http://www.w3.org/2000/svg" viewBox="0 0 1255 1422" width="1255" height="1422" shape-rendering="geometricPrecision">
<path d="M 798 1131 L 798 1132 L 799 1133 L 799 1134 L 802 1139 L 802 1141 L 805 1146 L 805 1148 L 806 1149 L 806 1150 L 807 1151 L 807 1152 L 808 1153 L 809 1156 L 811 1158 L 811 1159 L 812 1160 L 812 1161 L 813 1162 L 813 1163 L 814 1164 L 814 1165 L 815 1166 L 815 1167 L 816 1168 L 816 1169 L 817 1170 L 817 1171 L 818 1172 L 818 1173 L 819 1174 L 819 1175 L 820 1176 L 820 1177 L 821 1178 L 821 1179 L 822 1180 L 822 1181 L 823 1182 L 824 1185 L 826 1187 L 826 1188 L 827 1189 L 828 1192 L 830 1194 L 830 1195 L 832 1197 L 832 1198 L 836 1203 L 836 1205 L 837 1205 L 838 1206 L 840 1206 L 842 1208 L 843 1208 L 844 1209 L 845 1209 L 850 1212 L 852 1212 L 853 1213 L 854 1213 L 855 1214 L 856 1214 L 857 1215 L 858 1215 L 859 1216 L 860 1216 L 865 1219 L 865 1215 L 866 1214 L 866 1211 L 867 1210 L 867 1206 L 868 1205 L 868 1202 L 869 1201 L 869 1198 L 868 1197 L 867 1197 L 862 1192 L 861 1192 L 856 1187 L 855 1187 L 852 1184 L 851 1184 L 849 1182 L 849 1181 L 846 1179 L 846 1178 L 843 1177 L 842 1176 L 842 1175 L 838 1171 L 837 1171 L 836 1170 L 836 1169 L 835 1169 L 821 1155 L 820 1155 L 819 1154 L 819 1153 L 818 1153 L 817 1152 L 817 1151 L 813 1147 L 812 1147 L 811 1146 L 811 1145 L 802 1136 L 802 1135 L 801 1135 L 800 1134 L 800 1133 Z" fill="#f4d8cc" stroke="#f4d8cc" stroke-width="1" stroke-linejoin="round" fill-rule="evenodd"/>
<path d="M 964 720 L 963 720 L 962 721 L 960 721 L 959 722 L 958 722 L 957 723 L 956 723 L 955 724 L 954 724 L 953 725 L 952 725 L 951 726 L 950 726 L 949 727 L 948 727 L 947 728 L 944 729 L 942 731 L 940 731 L 938 733 L 937 733 L 936 734 L 933 735 L 930 738 L 927 739 L 925 741 L 924 741 L 922 743 L 921 743 L 917 747 L 916 747 L 916 748 L 915 749 L 916 748 L 917 749 L 917 751 L 918 752 L 918 754 L 919 755 L 919 756 L 920 757 L 921 757 L 926 752 L 929 751 L 936 745 L 937 745 L 938 744 L 941 743 L 946 739 L 948 739 L 949 738 L 951 738 L 953 736 L 954 736 L 959 733 L 961 733 L 962 732 L 964 732 L 964 731 L 965 730 L 964 731 L 963 730 L 963 725 L 964 724 Z M 922 747 L 923 748 L 922 749 L 922 750 L 921 751 L 919 751 L 918 750 L 918 749 L 919 748 Z" fill="#f4d8cc" stroke="#f4d8cc" stroke-width="1" stroke-linejoin="round" fill-rule="evenodd"/>
<path d="M 958 628 L 928 636 L 882 655 L 883 657 L 850 701 L 812 740 L 819 811 L 849 874 L 895 947 L 893 953 L 885 956 L 857 945 L 820 924 L 792 904 L 823 949 L 860 988 L 929 1039 L 929 1044 L 923 1051 L 895 1065 L 854 1076 L 827 1078 L 899 1118 L 964 1144 L 1020 1161 L 1062 1164 L 1076 1157 L 1085 1144 L 1094 1078 L 1104 1057 L 1118 1042 L 1121 1034 L 1117 1018 L 1118 1009 L 1142 985 L 1138 967 L 1140 943 L 1177 893 L 1184 877 L 1185 867 L 1155 848 L 1133 828 L 1117 808 L 1105 786 L 1099 766 L 1099 741 L 1110 702 L 1035 693 L 1028 689 L 1029 685 L 1026 688 L 1019 686 L 1018 690 L 1048 702 L 1030 707 L 1052 729 L 1041 729 L 1014 717 L 1019 721 L 1021 748 L 1014 783 L 1008 790 L 1006 798 L 1002 800 L 1009 807 L 1008 810 L 972 801 L 955 793 L 956 790 L 945 787 L 934 795 L 934 790 L 941 785 L 935 783 L 923 789 L 921 786 L 931 780 L 916 774 L 877 745 L 911 723 L 895 718 L 895 714 L 922 713 L 968 692 L 995 687 L 1009 688 L 1014 683 L 1010 685 L 1010 682 L 1007 683 L 1003 678 L 972 680 L 948 687 L 920 700 L 921 696 L 939 684 L 956 676 L 982 669 L 971 627 Z M 1113 1009 L 1113 1010 L 1108 1014 L 1107 1014 L 1106 1015 L 1103 1015 L 1102 1016 L 1094 1016 L 1093 1017 L 1087 1017 L 1086 1018 L 1080 1018 L 1079 1019 L 1075 1019 L 1074 1020 L 1071 1020 L 1070 1021 L 1067 1021 L 1066 1022 L 1063 1022 L 1062 1021 L 1063 1018 L 1066 1015 L 1067 1015 L 1068 1014 L 1069 1014 L 1074 1011 L 1076 1011 L 1077 1010 L 1079 1010 L 1080 1009 L 1083 1009 L 1084 1008 L 1088 1008 L 1089 1007 L 1106 1007 L 1107 1008 L 1112 1008 Z" fill="#f4d8cc" stroke="#f4d8cc" stroke-width="1" stroke-linejoin="round" fill-rule="evenodd"/>
<path d="M 942 538 L 941 538 L 941 539 L 940 540 L 940 542 L 939 543 L 939 545 L 936 550 L 936 552 L 934 555 L 934 557 L 932 560 L 932 562 L 931 563 L 931 564 L 930 565 L 930 566 L 929 567 L 929 568 L 928 569 L 928 570 L 925 575 L 925 577 L 923 580 L 923 582 L 921 584 L 921 586 L 920 587 L 919 590 L 917 592 L 917 594 L 916 595 L 916 596 L 914 598 L 914 599 L 913 600 L 913 601 L 912 602 L 912 603 L 911 604 L 911 605 L 910 606 L 910 607 L 909 608 L 909 609 L 908 610 L 908 611 L 907 612 L 906 615 L 904 617 L 904 619 L 902 621 L 902 622 L 898 627 L 898 628 L 897 629 L 896 632 L 892 637 L 893 637 L 896 635 L 898 635 L 900 633 L 901 633 L 902 632 L 903 632 L 904 631 L 905 631 L 906 630 L 907 630 L 908 629 L 909 629 L 910 628 L 911 628 L 912 627 L 913 627 L 914 626 L 917 625 L 919 623 L 920 623 L 921 622 L 923 622 L 926 620 L 928 620 L 933 617 L 935 617 L 936 616 L 938 616 L 941 614 L 944 614 L 945 613 L 947 613 L 948 612 L 951 612 L 952 611 L 954 611 L 955 610 L 957 610 L 958 609 L 961 609 L 962 608 L 965 608 L 964 607 L 964 604 L 963 603 L 963 600 L 962 599 L 962 597 L 961 596 L 961 593 L 959 590 L 959 587 L 958 586 L 958 584 L 957 583 L 957 581 L 956 580 L 956 578 L 955 577 L 955 574 L 953 571 L 953 569 L 952 568 L 952 566 L 950 563 L 950 561 L 949 560 L 949 557 L 947 554 L 947 552 L 946 551 L 946 549 L 945 548 L 945 546 L 944 545 L 944 543 L 943 542 L 943 540 L 942 539 Z" fill="#f4d8cc" stroke="#f4d8cc" stroke-width="1" stroke-linejoin="round" fill-rule="evenodd"/>
<path d="M 1003 679 L 1005 679 L 1007 681 L 1007 682 L 1009 682 L 1010 683 L 1010 684 L 1011 684 L 1013 682 L 1013 681 L 1014 680 L 1015 681 L 1015 682 L 1016 681 L 1016 680 L 1014 680 L 1013 679 L 1010 679 L 1009 678 L 1006 678 L 1005 679 L 1004 678 Z" fill="#f0b6b8" stroke="#f0b6b8" stroke-width="1" stroke-linejoin="round" fill-rule="evenodd"/>
<path d="M 1075 129 L 1075 130 L 1074 131 L 1070 131 L 1069 132 L 1067 132 L 1066 131 L 1067 132 L 1066 133 L 1065 133 L 1064 132 L 1065 133 L 1063 135 L 1062 135 L 1061 134 L 1062 133 L 1061 134 L 1062 135 L 1061 136 L 1058 136 L 1056 138 L 1055 138 L 1051 142 L 1050 142 L 1048 144 L 1048 145 L 1047 146 L 1046 146 L 1046 147 L 1045 148 L 1044 148 L 1036 156 L 1035 159 L 1034 160 L 1033 160 L 1033 161 L 1030 163 L 1030 164 L 1029 165 L 1030 166 L 1028 168 L 1027 167 L 1026 168 L 1027 169 L 1026 170 L 1025 170 L 1022 173 L 1022 174 L 1016 181 L 1017 182 L 1015 184 L 1014 184 L 1013 185 L 1014 186 L 1014 187 L 1013 188 L 1012 187 L 1011 188 L 1012 189 L 1012 190 L 1011 191 L 1010 190 L 1009 191 L 1009 192 L 1008 193 L 1009 194 L 1006 196 L 1005 199 L 1003 201 L 1004 202 L 1003 203 L 1002 203 L 1002 204 L 1001 205 L 1002 204 L 1003 205 L 1003 206 L 1006 207 L 1008 209 L 1009 208 L 1010 209 L 1010 210 L 1011 209 L 1012 210 L 1012 211 L 1013 211 L 1014 212 L 1015 212 L 1017 214 L 1018 214 L 1019 215 L 1022 216 L 1024 218 L 1027 219 L 1029 221 L 1030 220 L 1031 221 L 1031 222 L 1033 222 L 1036 225 L 1037 225 L 1042 229 L 1045 230 L 1050 234 L 1051 233 L 1052 234 L 1052 235 L 1055 238 L 1056 237 L 1058 240 L 1059 239 L 1060 240 L 1060 241 L 1062 243 L 1063 243 L 1065 245 L 1066 245 L 1069 248 L 1070 248 L 1073 251 L 1074 251 L 1078 255 L 1079 255 L 1080 256 L 1080 253 L 1081 252 L 1081 245 L 1082 244 L 1082 243 L 1081 242 L 1081 238 L 1082 237 L 1083 237 L 1083 229 L 1084 228 L 1084 221 L 1085 220 L 1085 213 L 1084 212 L 1084 207 L 1085 206 L 1086 207 L 1086 208 L 1086 204 L 1085 203 L 1085 195 L 1086 194 L 1087 195 L 1087 197 L 1087 185 L 1086 184 L 1088 181 L 1088 155 L 1087 155 L 1086 154 L 1086 151 L 1087 150 L 1087 144 L 1086 145 L 1085 144 L 1085 141 L 1086 140 L 1086 139 L 1085 138 L 1085 136 L 1083 134 L 1083 133 L 1082 134 L 1080 132 L 1081 131 L 1080 132 L 1079 131 L 1078 131 L 1077 130 L 1077 129 Z" fill="#f0b6b8" stroke="#f0b6b8" stroke-width="1" stroke-linejoin="round" fill-rule="evenodd"/>
<path d="M 703 75 L 699 75 L 698 76 L 697 75 L 694 75 L 690 77 L 689 79 L 688 78 L 685 82 L 684 81 L 682 83 L 682 85 L 680 86 L 680 88 L 679 89 L 678 88 L 678 91 L 677 92 L 675 92 L 676 93 L 674 94 L 675 96 L 674 97 L 673 96 L 671 100 L 672 101 L 672 103 L 671 104 L 670 102 L 668 106 L 669 107 L 667 108 L 668 110 L 666 111 L 665 113 L 666 114 L 664 115 L 665 117 L 663 118 L 662 122 L 660 125 L 660 127 L 659 128 L 660 130 L 659 131 L 658 130 L 658 132 L 656 136 L 657 139 L 656 140 L 655 139 L 657 143 L 656 144 L 654 143 L 655 145 L 653 147 L 653 149 L 651 153 L 651 156 L 650 157 L 650 160 L 649 161 L 650 164 L 648 165 L 649 166 L 649 169 L 648 170 L 647 168 L 647 172 L 646 173 L 646 176 L 645 177 L 646 179 L 644 181 L 644 184 L 643 185 L 643 188 L 644 190 L 643 191 L 642 190 L 642 192 L 643 193 L 641 195 L 642 197 L 642 202 L 640 203 L 641 204 L 639 206 L 639 210 L 638 211 L 639 213 L 639 217 L 638 218 L 637 217 L 637 223 L 636 224 L 636 230 L 635 231 L 635 239 L 634 240 L 634 248 L 633 249 L 633 257 L 634 258 L 632 260 L 632 265 L 633 266 L 633 270 L 631 274 L 631 330 L 632 331 L 632 345 L 633 345 L 632 344 L 636 341 L 635 340 L 639 337 L 639 336 L 642 333 L 645 328 L 655 317 L 654 316 L 657 313 L 658 313 L 664 306 L 663 305 L 665 304 L 667 302 L 667 301 L 669 300 L 669 299 L 675 294 L 674 293 L 676 290 L 677 291 L 683 285 L 683 284 L 685 283 L 689 279 L 689 278 L 693 275 L 694 273 L 695 273 L 699 269 L 700 269 L 707 262 L 708 260 L 710 260 L 713 256 L 716 255 L 721 250 L 722 250 L 723 248 L 724 248 L 733 241 L 734 241 L 733 240 L 734 239 L 736 239 L 737 237 L 738 238 L 740 236 L 748 231 L 747 230 L 748 229 L 750 230 L 752 228 L 760 224 L 760 216 L 759 215 L 759 210 L 758 209 L 758 204 L 757 203 L 756 192 L 755 191 L 755 188 L 754 187 L 754 182 L 753 181 L 753 178 L 752 177 L 752 174 L 751 173 L 750 166 L 749 167 L 748 166 L 749 163 L 747 162 L 748 159 L 747 161 L 746 160 L 747 156 L 746 155 L 746 153 L 745 152 L 745 150 L 744 149 L 744 147 L 743 146 L 743 144 L 742 143 L 742 141 L 741 140 L 741 138 L 740 137 L 740 135 L 739 134 L 739 132 L 738 131 L 735 120 L 733 117 L 733 115 L 732 116 L 730 115 L 732 113 L 731 114 L 729 111 L 730 109 L 729 110 L 728 109 L 729 107 L 726 101 L 723 99 L 724 97 L 722 95 L 720 90 L 717 88 L 718 87 L 711 79 L 712 80 L 710 81 L 708 77 L 706 77 Z" fill="#f0b6b8" stroke="#f0b6b8" stroke-width="1" stroke-linejoin="round" fill-rule="evenodd"/>
<path d="M 776 1076 L 776 1077 L 777 1076 L 778 1077 L 777 1079 L 778 1082 L 780 1083 L 779 1086 L 782 1093 L 782 1091 L 783 1090 L 784 1091 L 783 1096 L 784 1099 L 785 1097 L 787 1100 L 786 1102 L 785 1101 L 786 1104 L 787 1102 L 788 1103 L 787 1106 L 789 1107 L 788 1109 L 789 1108 L 790 1109 L 789 1111 L 790 1114 L 791 1112 L 792 1113 L 791 1116 L 793 1117 L 792 1119 L 793 1121 L 795 1122 L 794 1123 L 795 1126 L 796 1125 L 797 1126 L 796 1129 L 797 1128 L 807 1140 L 808 1140 L 821 1154 L 836 1167 L 843 1175 L 847 1177 L 851 1182 L 870 1197 L 870 1200 L 870 1196 L 872 1191 L 871 1188 L 873 1187 L 872 1185 L 874 1183 L 876 1177 L 875 1175 L 877 1174 L 876 1172 L 877 1171 L 878 1172 L 880 1166 L 879 1164 L 881 1163 L 885 1154 L 884 1152 L 887 1151 L 890 1145 L 889 1144 L 886 1145 L 885 1144 L 887 1143 L 884 1144 L 883 1143 L 884 1142 L 883 1143 L 882 1141 L 879 1142 L 878 1139 L 875 1140 L 872 1138 L 873 1137 L 872 1138 L 870 1137 L 871 1136 L 869 1137 L 868 1134 L 869 1135 L 867 1136 L 863 1134 L 862 1131 L 856 1128 L 854 1129 L 853 1128 L 854 1127 L 852 1128 L 851 1127 L 852 1126 L 847 1123 L 845 1124 L 844 1123 L 845 1122 L 839 1121 L 837 1117 L 836 1118 L 834 1115 L 833 1116 L 832 1114 L 828 1111 L 827 1112 L 826 1111 L 823 1112 L 822 1111 L 825 1109 L 819 1104 L 820 1102 L 821 1103 L 824 1102 L 825 1103 L 824 1104 L 829 1106 L 831 1105 L 832 1106 L 831 1107 L 833 1106 L 834 1108 L 836 1107 L 837 1108 L 836 1109 L 838 1108 L 839 1110 L 841 1111 L 840 1110 L 842 1109 L 844 1112 L 846 1111 L 847 1113 L 850 1112 L 851 1113 L 850 1114 L 851 1113 L 852 1115 L 856 1114 L 859 1116 L 858 1117 L 861 1116 L 862 1117 L 861 1118 L 870 1121 L 872 1120 L 873 1122 L 875 1123 L 878 1123 L 879 1124 L 880 1123 L 882 1125 L 884 1124 L 885 1126 L 890 1128 L 893 1127 L 894 1128 L 893 1129 L 896 1128 L 897 1130 L 899 1129 L 900 1130 L 899 1131 L 905 1132 L 909 1134 L 911 1133 L 912 1135 L 914 1134 L 915 1136 L 918 1135 L 919 1137 L 921 1136 L 922 1138 L 925 1139 L 928 1139 L 939 1143 L 941 1142 L 942 1144 L 944 1143 L 945 1145 L 949 1144 L 950 1145 L 949 1146 L 952 1145 L 953 1146 L 952 1147 L 955 1148 L 957 1147 L 959 1149 L 963 1148 L 964 1149 L 963 1150 L 964 1149 L 967 1149 L 968 1150 L 966 1151 L 971 1150 L 972 1151 L 970 1152 L 974 1151 L 975 1152 L 974 1153 L 977 1153 L 978 1154 L 982 1154 L 983 1155 L 987 1154 L 988 1155 L 987 1156 L 992 1156 L 993 1157 L 1012 1160 L 1003 1158 L 999 1156 L 996 1156 L 989 1153 L 986 1153 L 970 1147 L 967 1147 L 939 1135 L 936 1135 L 931 1132 L 925 1131 L 923 1129 L 919 1128 L 914 1125 L 906 1123 L 904 1121 L 896 1117 L 894 1117 L 884 1111 L 882 1111 L 868 1104 L 864 1101 L 860 1100 L 857 1097 L 844 1090 L 838 1085 L 836 1085 L 830 1080 L 827 1079 L 801 1079 L 800 1078 L 792 1078 L 791 1077 L 789 1078 L 783 1076 L 784 1075 L 787 1075 L 784 1075 L 783 1076 L 778 1076 L 777 1075 L 780 1074 L 778 1074 Z" fill="#d5a59d" stroke="#d5a59d" stroke-width="1" stroke-linejoin="round" fill-rule="evenodd"/>
<path d="M 1055 632 L 1055 637 L 1056 638 L 1056 641 L 1055 642 L 1054 641 L 1054 644 L 1055 645 L 1055 647 L 1053 649 L 1053 652 L 1054 653 L 1054 657 L 1053 658 L 1052 657 L 1052 655 L 1052 658 L 1053 659 L 1053 663 L 1052 664 L 1051 663 L 1051 662 L 1051 664 L 1052 665 L 1050 667 L 1050 668 L 1051 669 L 1050 670 L 1051 671 L 1051 673 L 1050 674 L 1049 673 L 1049 672 L 1049 673 L 1050 674 L 1050 676 L 1048 678 L 1039 678 L 1045 678 L 1046 679 L 1045 680 L 1039 680 L 1039 681 L 1038 682 L 1037 682 L 1035 679 L 1031 679 L 1030 678 L 1030 677 L 1030 678 L 1033 680 L 1033 683 L 1031 685 L 1031 688 L 1030 689 L 1031 690 L 1034 690 L 1035 691 L 1039 691 L 1040 692 L 1046 692 L 1047 693 L 1053 693 L 1054 694 L 1065 694 L 1066 695 L 1070 695 L 1071 696 L 1079 696 L 1080 697 L 1085 697 L 1086 698 L 1092 698 L 1093 699 L 1100 699 L 1101 700 L 1106 700 L 1107 701 L 1109 701 L 1111 699 L 1112 700 L 1112 699 L 1111 698 L 1111 697 L 1112 696 L 1113 697 L 1112 696 L 1112 694 L 1114 692 L 1115 693 L 1113 691 L 1114 690 L 1113 689 L 1113 688 L 1114 687 L 1115 687 L 1111 687 L 1110 686 L 1102 686 L 1101 685 L 1102 684 L 1104 684 L 1098 684 L 1097 685 L 1087 685 L 1086 684 L 1082 684 L 1081 683 L 1082 682 L 1083 682 L 1076 682 L 1075 681 L 1070 681 L 1069 682 L 1064 682 L 1063 681 L 1064 680 L 1068 680 L 1063 680 L 1061 682 L 1060 681 L 1060 680 L 1061 679 L 1060 679 L 1058 676 L 1058 633 L 1058 640 L 1057 641 L 1056 640 L 1056 637 L 1055 636 Z" fill="#d5a59d" stroke="#d5a59d" stroke-width="1" stroke-linejoin="round" fill-rule="evenodd"/>
<path d="M 971 626 L 972 627 L 972 629 L 973 630 L 973 632 L 974 633 L 974 636 L 975 637 L 975 639 L 976 640 L 976 642 L 977 643 L 977 646 L 978 647 L 978 649 L 979 650 L 979 652 L 980 653 L 980 657 L 981 658 L 981 661 L 982 662 L 982 664 L 983 665 L 983 668 L 985 668 L 985 667 L 984 666 L 984 665 L 985 664 L 985 662 L 984 662 L 983 661 L 983 659 L 984 658 L 984 654 L 984 655 L 983 656 L 982 655 L 982 652 L 983 651 L 983 648 L 983 650 L 982 651 L 981 650 L 981 645 L 982 644 L 982 641 L 981 640 L 981 635 L 980 634 L 980 629 L 979 628 L 979 627 L 975 627 L 974 626 L 974 627 L 973 628 L 972 627 L 972 626 Z" fill="#d5a59d" stroke="#d5a59d" stroke-width="1" stroke-linejoin="round" fill-rule="evenodd"/>
<path d="M 946 478 L 944 480 L 943 479 L 944 481 L 942 482 L 940 489 L 941 491 L 939 492 L 940 494 L 938 495 L 939 497 L 937 498 L 938 501 L 937 502 L 936 501 L 937 503 L 935 504 L 936 507 L 935 508 L 934 507 L 929 522 L 925 530 L 926 532 L 924 533 L 925 535 L 924 536 L 923 535 L 924 536 L 922 537 L 923 539 L 920 542 L 921 544 L 920 545 L 919 544 L 917 549 L 918 550 L 916 551 L 917 553 L 916 554 L 915 553 L 909 565 L 910 567 L 909 568 L 908 567 L 906 571 L 907 573 L 906 574 L 905 573 L 906 576 L 904 578 L 903 577 L 904 578 L 903 580 L 902 579 L 903 581 L 900 582 L 899 584 L 900 586 L 899 587 L 898 586 L 897 588 L 898 587 L 899 589 L 895 591 L 893 595 L 894 596 L 891 599 L 892 600 L 889 602 L 888 604 L 889 605 L 887 606 L 888 607 L 886 610 L 885 609 L 886 610 L 884 613 L 883 612 L 884 613 L 882 614 L 883 615 L 881 618 L 880 617 L 881 619 L 880 620 L 879 619 L 878 620 L 879 621 L 876 623 L 877 624 L 874 626 L 870 633 L 871 634 L 865 640 L 866 642 L 863 643 L 864 645 L 861 648 L 860 647 L 860 649 L 857 651 L 858 652 L 855 654 L 856 655 L 853 657 L 846 666 L 847 667 L 845 670 L 842 671 L 843 673 L 842 674 L 841 673 L 839 675 L 839 677 L 831 685 L 832 686 L 827 690 L 828 691 L 815 704 L 816 705 L 793 728 L 794 727 L 795 728 L 794 733 L 799 754 L 800 753 L 801 754 L 800 758 L 802 759 L 801 762 L 803 768 L 804 767 L 805 768 L 804 772 L 806 773 L 805 774 L 807 776 L 806 778 L 807 777 L 808 778 L 807 781 L 808 780 L 809 781 L 808 783 L 810 784 L 809 786 L 811 787 L 810 789 L 811 788 L 812 789 L 811 792 L 813 793 L 812 794 L 817 807 L 817 800 L 812 770 L 811 739 L 832 719 L 833 716 L 848 701 L 851 695 L 854 693 L 864 678 L 866 677 L 881 657 L 879 656 L 880 657 L 879 658 L 877 657 L 878 658 L 877 659 L 875 658 L 874 660 L 873 659 L 872 661 L 871 660 L 869 661 L 870 662 L 869 663 L 867 662 L 865 663 L 866 664 L 865 665 L 863 664 L 858 667 L 855 665 L 858 664 L 857 663 L 860 662 L 871 651 L 872 652 L 875 648 L 876 649 L 878 646 L 879 647 L 878 646 L 879 645 L 882 645 L 881 644 L 885 643 L 887 640 L 888 641 L 889 638 L 894 633 L 896 627 L 902 619 L 912 598 L 916 593 L 920 582 L 934 553 L 935 548 L 937 546 L 938 540 L 942 535 L 951 558 L 957 579 L 961 587 L 966 606 L 973 607 L 971 606 L 975 604 L 975 602 L 974 604 L 973 603 L 974 597 L 973 599 L 972 598 L 973 591 L 972 592 L 971 591 L 972 587 L 970 586 L 971 581 L 969 580 L 970 579 L 969 572 L 968 574 L 967 573 L 968 568 L 967 569 L 966 568 L 967 563 L 966 564 L 965 563 L 966 559 L 965 560 L 964 559 L 965 554 L 963 546 L 960 544 L 961 542 L 962 543 L 962 541 L 960 540 L 961 537 L 960 538 L 959 537 L 960 533 L 958 532 L 959 529 L 958 525 L 956 523 L 957 521 L 955 520 L 956 519 L 955 512 L 954 514 L 953 513 L 954 509 L 953 510 L 952 509 L 953 505 L 952 506 L 951 505 L 952 501 L 951 502 L 950 501 L 951 497 L 949 496 L 950 493 L 949 494 L 948 493 L 949 489 L 947 487 L 948 485 Z" fill="#d5a59d" stroke="#d5a59d" stroke-width="1" stroke-linejoin="round" fill-rule="evenodd"/>
<path d="M 1099 1161 L 1096 1166 L 1083 1178 L 1081 1178 L 1077 1181 L 1071 1182 L 1067 1184 L 1055 1185 L 1055 1198 L 1054 1199 L 1054 1210 L 1053 1211 L 1053 1221 L 1052 1222 L 1051 1236 L 1050 1237 L 1050 1242 L 1049 1243 L 1049 1247 L 1048 1248 L 1046 1262 L 1045 1263 L 1043 1274 L 1041 1278 L 1041 1281 L 1039 1285 L 1039 1288 L 1038 1289 L 1037 1294 L 1032 1305 L 1032 1308 L 1025 1322 L 1025 1324 L 1017 1339 L 1017 1341 L 1014 1344 L 1014 1346 L 1010 1351 L 1009 1354 L 1002 1363 L 1002 1365 L 1000 1366 L 995 1374 L 993 1375 L 993 1376 L 987 1382 L 987 1385 L 999 1385 L 1000 1383 L 1002 1382 L 1016 1368 L 1031 1348 L 1034 1341 L 1036 1339 L 1039 1333 L 1039 1331 L 1046 1316 L 1046 1313 L 1048 1310 L 1048 1308 L 1051 1301 L 1054 1286 L 1056 1282 L 1056 1278 L 1057 1277 L 1057 1273 L 1058 1272 L 1060 1258 L 1061 1257 L 1063 1259 L 1062 1295 L 1061 1296 L 1061 1304 L 1060 1305 L 1060 1310 L 1059 1311 L 1059 1317 L 1057 1321 L 1056 1328 L 1052 1337 L 1051 1342 L 1047 1349 L 1047 1351 L 1045 1353 L 1045 1355 L 1041 1363 L 1031 1378 L 1025 1385 L 1071 1385 L 1072 1380 L 1074 1379 L 1077 1374 L 1079 1373 L 1090 1356 L 1097 1342 L 1097 1340 L 1100 1335 L 1100 1333 L 1102 1330 L 1102 1328 L 1105 1321 L 1105 1318 L 1107 1313 L 1107 1309 L 1109 1304 L 1110 1292 L 1111 1291 L 1111 1280 L 1112 1279 L 1112 1238 L 1111 1237 L 1111 1229 L 1110 1228 L 1110 1221 L 1109 1220 L 1109 1214 L 1108 1213 L 1108 1207 L 1107 1206 L 1106 1192 L 1105 1191 L 1105 1187 L 1103 1182 L 1103 1178 L 1102 1177 L 1102 1173 L 1101 1172 L 1101 1168 L 1100 1167 Z" fill="#a8595e" stroke="#a8595e" stroke-width="1" stroke-linejoin="round" fill-rule="evenodd"/>
<path d="M 540 953 L 532 1014 L 529 1062 L 530 1118 L 535 1162 L 546 1209 L 561 1251 L 580 1288 L 610 1330 L 658 1380 L 661 1387 L 663 1385 L 650 1364 L 629 1317 L 606 1245 L 596 1197 L 595 1153 L 598 1157 L 601 1178 L 612 1220 L 622 1248 L 634 1272 L 661 1313 L 692 1343 L 720 1362 L 743 1373 L 765 1379 L 772 1385 L 891 1385 L 858 1359 L 812 1311 L 783 1270 L 757 1223 L 750 1205 L 749 1194 L 773 1229 L 801 1257 L 841 1282 L 887 1300 L 849 1259 L 824 1224 L 796 1175 L 778 1136 L 735 1129 L 684 1111 L 631 1077 L 606 1055 L 578 1022 L 560 995 Z" fill="#a8595e" stroke="#a8595e" stroke-width="1" stroke-linejoin="round" fill-rule="evenodd"/>
<path d="M 1008 750 L 1006 750 L 1003 748 L 1000 748 L 1000 750 L 999 751 L 999 757 L 998 758 L 998 760 L 997 761 L 997 762 L 996 763 L 995 766 L 990 771 L 989 771 L 988 772 L 986 772 L 985 771 L 983 771 L 981 769 L 980 769 L 979 768 L 979 767 L 977 765 L 977 763 L 976 762 L 976 760 L 975 759 L 975 757 L 973 759 L 972 759 L 972 760 L 971 761 L 972 762 L 972 770 L 973 771 L 973 773 L 974 774 L 974 777 L 975 778 L 975 780 L 976 781 L 976 783 L 978 785 L 979 788 L 985 794 L 986 794 L 987 795 L 993 795 L 994 794 L 995 794 L 1000 789 L 1000 788 L 1002 785 L 1002 783 L 1003 782 L 1003 780 L 1004 779 L 1004 777 L 1005 776 L 1005 773 L 1006 772 L 1006 766 L 1007 765 L 1007 756 L 1008 755 Z" fill="#a8595e" stroke="#a8595e" stroke-width="1" stroke-linejoin="round" fill-rule="evenodd"/>
<path d="M 997 625 L 998 626 L 998 631 L 999 632 L 999 637 L 1000 638 L 1000 643 L 1001 644 L 1001 650 L 1002 651 L 1002 655 L 1003 656 L 1007 656 L 1008 657 L 1011 657 L 1012 658 L 1018 658 L 1019 659 L 1025 659 L 1026 660 L 1032 660 L 1033 661 L 1038 661 L 1038 660 L 1039 659 L 1039 652 L 1040 651 L 1040 644 L 1041 643 L 1041 635 L 1042 634 L 1042 629 L 1041 629 L 1040 628 L 1036 628 L 1035 627 L 1032 627 L 1031 626 L 1024 626 L 1023 625 L 1008 625 L 1007 624 L 998 624 Z" fill="#a8595e" stroke="#a8595e" stroke-width="1" stroke-linejoin="round" fill-rule="evenodd"/>
<path d="M 508 235 L 439 292 L 389 355 L 349 430 L 320 523 L 308 600 L 305 694 L 321 886 L 323 983 L 312 1084 L 288 1175 L 308 1008 L 308 937 L 300 849 L 281 957 L 241 1069 L 192 1153 L 76 1305 L 58 1341 L 44 1386 L 118 1385 L 128 1353 L 151 1308 L 213 1234 L 167 1307 L 136 1386 L 280 1385 L 308 1353 L 343 1299 L 388 1192 L 364 1282 L 331 1349 L 304 1385 L 313 1385 L 362 1341 L 399 1297 L 438 1235 L 472 1162 L 507 1046 L 531 890 L 515 840 L 503 770 L 501 718 L 506 652 L 526 559 L 560 472 L 513 430 L 490 378 L 487 312 Z" fill="#a8595e" stroke="#a8595e" stroke-width="1" stroke-linejoin="round" fill-rule="evenodd"/>
<path d="M 787 167 L 793 210 L 828 207 L 760 241 L 695 299 L 637 373 L 578 478 L 547 558 L 530 626 L 522 686 L 522 760 L 533 830 L 554 896 L 584 951 L 619 993 L 666 1028 L 735 1053 L 683 1018 L 633 955 L 608 894 L 598 827 L 638 937 L 693 1005 L 762 1046 L 800 1056 L 843 1057 L 898 1041 L 828 985 L 782 924 L 721 799 L 709 750 L 743 820 L 773 860 L 809 894 L 855 922 L 794 804 L 772 725 L 764 651 L 766 582 L 777 518 L 798 454 L 829 399 L 814 444 L 802 527 L 804 599 L 819 667 L 862 609 L 901 538 L 928 463 L 940 395 L 993 603 L 1044 614 L 1044 535 L 1024 413 L 1073 532 L 1086 599 L 1089 665 L 1137 668 L 1143 632 L 1142 530 L 1117 426 L 1138 470 L 1155 534 L 1162 593 L 1159 667 L 1185 660 L 1192 589 L 1189 512 L 1201 575 L 1200 661 L 1207 635 L 1209 556 L 1199 482 L 1174 407 L 1144 354 L 1089 290 L 1020 238 L 948 202 L 870 177 Z" fill="#a8595e" stroke="#a8595e" stroke-width="1" stroke-linejoin="round" fill-rule="evenodd"/>
<path d="M 939 1346 L 938 1349 L 934 1353 L 934 1354 L 928 1361 L 928 1362 L 927 1363 L 926 1366 L 923 1368 L 923 1369 L 921 1371 L 921 1372 L 918 1375 L 918 1378 L 921 1378 L 922 1375 L 925 1372 L 925 1369 L 929 1365 L 929 1363 L 931 1361 L 931 1360 L 932 1359 L 932 1358 L 933 1357 L 934 1354 L 937 1351 L 937 1350 L 938 1349 Z" fill="#76303a" stroke="#76303a" stroke-width="1" stroke-linejoin="round" fill-rule="evenodd"/>
<path d="M 656 1336 L 656 1338 L 659 1341 L 659 1342 L 660 1343 L 660 1345 L 661 1346 L 661 1347 L 662 1348 L 663 1351 L 665 1353 L 665 1355 L 666 1356 L 667 1359 L 669 1361 L 670 1364 L 673 1367 L 673 1368 L 675 1370 L 675 1371 L 676 1372 L 676 1373 L 678 1375 L 678 1376 L 686 1385 L 706 1385 L 707 1384 L 712 1384 L 713 1385 L 717 1385 L 718 1384 L 719 1385 L 721 1385 L 722 1384 L 723 1385 L 726 1385 L 723 1385 L 721 1382 L 720 1382 L 719 1381 L 718 1381 L 717 1380 L 714 1379 L 712 1377 L 710 1377 L 709 1376 L 708 1376 L 703 1372 L 700 1371 L 698 1369 L 695 1368 L 693 1366 L 692 1366 L 690 1364 L 689 1364 L 686 1361 L 685 1361 L 683 1359 L 682 1359 L 677 1354 L 676 1354 L 673 1351 L 672 1351 L 665 1344 L 664 1344 Z" fill="#76303a" stroke="#76303a" stroke-width="1" stroke-linejoin="round" fill-rule="evenodd"/>
<path d="M 918 1326 L 907 1326 L 907 1327 L 906 1328 L 906 1330 L 904 1332 L 904 1334 L 903 1335 L 903 1336 L 900 1341 L 900 1343 L 898 1345 L 898 1347 L 897 1348 L 897 1350 L 896 1351 L 895 1351 L 895 1355 L 893 1358 L 893 1359 L 894 1360 L 893 1361 L 894 1361 L 895 1362 L 895 1364 L 896 1365 L 897 1365 L 898 1366 L 900 1366 L 901 1367 L 902 1366 L 902 1365 L 903 1364 L 904 1364 L 904 1362 L 905 1361 L 905 1360 L 908 1357 L 908 1355 L 909 1354 L 909 1352 L 911 1349 L 911 1348 L 910 1347 L 910 1345 L 911 1344 L 913 1346 L 914 1345 L 914 1343 L 916 1341 L 916 1335 L 917 1334 L 918 1335 L 919 1335 L 919 1333 L 920 1332 L 920 1330 L 921 1329 L 919 1329 L 918 1328 Z" fill="#76303a" stroke="#76303a" stroke-width="1" stroke-linejoin="round" fill-rule="evenodd"/>
<path d="M 893 1321 L 889 1321 L 889 1323 L 888 1324 L 888 1327 L 886 1329 L 886 1332 L 885 1333 L 885 1334 L 882 1339 L 882 1342 L 880 1344 L 880 1346 L 878 1349 L 878 1350 L 879 1350 L 881 1352 L 881 1353 L 882 1353 L 885 1356 L 885 1357 L 887 1357 L 887 1353 L 888 1352 L 888 1351 L 889 1350 L 890 1350 L 890 1345 L 892 1343 L 892 1340 L 894 1338 L 894 1335 L 895 1334 L 896 1334 L 896 1332 L 897 1331 L 897 1327 L 896 1326 L 896 1325 L 897 1324 L 899 1324 L 899 1323 L 897 1323 L 896 1322 L 894 1322 Z" fill="#76303a" stroke="#76303a" stroke-width="1" stroke-linejoin="round" fill-rule="evenodd"/>
<path d="M 870 1315 L 868 1317 L 868 1320 L 866 1322 L 866 1324 L 865 1325 L 865 1329 L 864 1330 L 864 1332 L 863 1333 L 863 1336 L 864 1336 L 865 1337 L 868 1337 L 869 1338 L 868 1339 L 868 1342 L 871 1342 L 872 1343 L 872 1344 L 872 1341 L 874 1338 L 874 1336 L 876 1334 L 875 1333 L 875 1332 L 876 1331 L 876 1329 L 878 1327 L 879 1327 L 879 1324 L 878 1323 L 880 1321 L 881 1321 L 881 1320 L 882 1319 L 880 1319 L 878 1317 L 875 1317 L 872 1315 Z" fill="#76303a" stroke="#76303a" stroke-width="1" stroke-linejoin="round" fill-rule="evenodd"/>
<path d="M 824 1294 L 824 1295 L 825 1295 L 827 1297 L 827 1298 L 831 1302 L 832 1302 L 833 1303 L 833 1304 L 835 1306 L 835 1308 L 838 1309 L 842 1315 L 845 1315 L 846 1316 L 846 1318 L 847 1319 L 847 1320 L 852 1325 L 852 1326 L 853 1327 L 854 1327 L 856 1329 L 857 1328 L 857 1326 L 859 1323 L 859 1318 L 860 1317 L 861 1317 L 861 1313 L 863 1311 L 860 1311 L 859 1310 L 856 1309 L 854 1307 L 850 1307 L 848 1305 L 845 1305 L 844 1304 L 841 1303 L 839 1301 L 837 1301 L 836 1300 L 835 1300 L 834 1299 L 833 1299 L 828 1296 L 826 1296 L 825 1295 L 825 1294 Z" fill="#76303a" stroke="#76303a" stroke-width="1" stroke-linejoin="round" fill-rule="evenodd"/>
<path d="M 948 1284 L 944 1284 L 944 1289 L 941 1294 L 941 1297 L 940 1298 L 940 1301 L 938 1303 L 938 1305 L 937 1306 L 937 1309 L 936 1310 L 936 1313 L 935 1314 L 935 1317 L 936 1318 L 936 1322 L 935 1323 L 935 1324 L 936 1324 L 936 1322 L 937 1321 L 938 1321 L 938 1319 L 939 1318 L 938 1318 L 937 1317 L 938 1316 L 941 1316 L 943 1314 L 944 1314 L 945 1311 L 947 1309 L 948 1306 L 950 1304 L 950 1301 L 951 1300 L 952 1301 L 952 1302 L 952 1298 L 954 1296 L 954 1294 L 956 1291 L 956 1290 L 954 1287 L 951 1287 L 950 1286 L 949 1286 L 948 1285 Z" fill="#76303a" stroke="#76303a" stroke-width="1" stroke-linejoin="round" fill-rule="evenodd"/>
<path d="M 926 1273 L 926 1274 L 924 1277 L 924 1281 L 923 1282 L 923 1286 L 922 1287 L 922 1289 L 921 1290 L 921 1291 L 920 1292 L 919 1292 L 919 1297 L 918 1298 L 918 1300 L 921 1303 L 922 1303 L 924 1305 L 927 1306 L 929 1309 L 929 1305 L 931 1302 L 931 1300 L 933 1298 L 933 1295 L 935 1292 L 935 1289 L 937 1287 L 937 1282 L 938 1281 L 939 1281 L 939 1279 L 938 1279 L 935 1277 L 933 1277 L 931 1275 L 930 1275 L 929 1274 Z" fill="#76303a" stroke="#76303a" stroke-width="1" stroke-linejoin="round" fill-rule="evenodd"/>
<path d="M 905 1264 L 906 1265 L 906 1266 L 903 1268 L 903 1273 L 901 1275 L 901 1281 L 900 1282 L 900 1285 L 901 1286 L 901 1287 L 905 1287 L 906 1288 L 906 1290 L 907 1291 L 909 1291 L 911 1293 L 912 1292 L 912 1290 L 913 1289 L 913 1286 L 914 1285 L 914 1283 L 916 1281 L 916 1280 L 917 1279 L 917 1275 L 919 1272 L 919 1269 L 918 1268 L 914 1268 L 912 1266 L 911 1266 L 910 1265 L 908 1265 L 907 1264 Z M 910 1283 L 911 1283 L 912 1284 L 912 1289 L 911 1290 L 909 1288 L 909 1287 L 910 1286 L 910 1285 L 909 1284 Z" fill="#76303a" stroke="#76303a" stroke-width="1" stroke-linejoin="round" fill-rule="evenodd"/>
<path d="M 636 1383 L 634 1383 L 632 1382 L 630 1378 L 629 1378 L 626 1374 L 623 1374 L 620 1368 L 618 1366 L 616 1366 L 612 1362 L 612 1360 L 611 1359 L 607 1359 L 606 1358 L 606 1355 L 605 1354 L 605 1352 L 604 1353 L 602 1351 L 602 1350 L 600 1349 L 599 1347 L 598 1347 L 597 1345 L 592 1341 L 590 1337 L 590 1335 L 586 1333 L 585 1331 L 585 1329 L 584 1329 L 582 1327 L 582 1326 L 580 1325 L 579 1322 L 576 1320 L 575 1318 L 575 1314 L 574 1314 L 572 1312 L 569 1306 L 567 1305 L 567 1302 L 565 1301 L 565 1299 L 563 1299 L 561 1297 L 561 1294 L 560 1293 L 560 1291 L 557 1288 L 557 1284 L 554 1281 L 554 1279 L 551 1275 L 551 1273 L 549 1269 L 547 1270 L 546 1269 L 547 1267 L 547 1265 L 545 1262 L 545 1259 L 544 1260 L 542 1259 L 542 1257 L 543 1256 L 537 1245 L 537 1241 L 536 1239 L 535 1239 L 534 1242 L 531 1244 L 531 1248 L 525 1255 L 525 1258 L 523 1261 L 521 1261 L 521 1262 L 518 1265 L 518 1267 L 516 1268 L 516 1271 L 514 1273 L 513 1273 L 511 1277 L 509 1277 L 508 1279 L 508 1281 L 506 1282 L 502 1287 L 501 1287 L 498 1293 L 495 1296 L 494 1296 L 492 1299 L 490 1299 L 490 1301 L 485 1305 L 485 1308 L 484 1309 L 484 1311 L 481 1313 L 480 1311 L 477 1314 L 475 1314 L 476 1315 L 474 1318 L 470 1318 L 470 1321 L 469 1322 L 467 1322 L 467 1323 L 464 1326 L 463 1326 L 460 1329 L 459 1329 L 459 1332 L 458 1333 L 455 1333 L 454 1335 L 452 1335 L 452 1337 L 453 1338 L 452 1339 L 450 1339 L 448 1338 L 448 1339 L 446 1341 L 445 1341 L 443 1344 L 440 1344 L 440 1346 L 439 1347 L 437 1347 L 437 1348 L 428 1356 L 426 1356 L 426 1358 L 425 1359 L 423 1359 L 421 1360 L 420 1362 L 419 1362 L 414 1366 L 414 1368 L 413 1369 L 410 1369 L 410 1370 L 408 1372 L 407 1372 L 406 1374 L 404 1375 L 402 1375 L 402 1377 L 400 1379 L 399 1379 L 400 1380 L 400 1383 Z M 460 1339 L 461 1340 L 461 1343 L 460 1344 L 459 1344 L 456 1342 L 457 1341 L 458 1341 Z" fill="#76303a" stroke="#76303a" stroke-width="1" stroke-linejoin="round" fill-rule="evenodd"/>
<path d="M 857 1238 L 858 1239 L 858 1240 L 865 1247 L 866 1250 L 867 1250 L 870 1253 L 870 1254 L 873 1257 L 874 1257 L 876 1259 L 877 1262 L 880 1265 L 880 1266 L 883 1268 L 883 1269 L 886 1272 L 886 1273 L 887 1273 L 889 1275 L 889 1276 L 890 1276 L 891 1277 L 891 1278 L 892 1278 L 893 1279 L 893 1278 L 894 1277 L 894 1273 L 896 1270 L 896 1268 L 895 1267 L 895 1263 L 896 1262 L 897 1262 L 898 1261 L 898 1260 L 897 1259 L 895 1259 L 894 1258 L 894 1256 L 890 1256 L 888 1254 L 887 1254 L 886 1253 L 883 1253 L 878 1248 L 876 1248 L 875 1247 L 873 1247 L 871 1245 L 870 1245 L 869 1244 L 867 1244 L 864 1242 L 862 1242 L 858 1238 Z M 870 1251 L 871 1250 L 876 1250 L 877 1251 L 877 1252 L 876 1253 L 874 1253 L 873 1252 L 871 1252 Z" fill="#76303a" stroke="#76303a" stroke-width="1" stroke-linejoin="round" fill-rule="evenodd"/>
<path d="M 907 1154 L 905 1159 L 902 1163 L 902 1165 L 896 1177 L 895 1184 L 893 1187 L 893 1190 L 891 1194 L 891 1197 L 890 1198 L 890 1201 L 889 1202 L 889 1205 L 888 1206 L 888 1209 L 887 1210 L 887 1214 L 886 1215 L 886 1218 L 885 1219 L 885 1222 L 884 1223 L 884 1226 L 883 1228 L 887 1231 L 896 1235 L 898 1237 L 901 1237 L 902 1239 L 906 1241 L 908 1241 L 909 1243 L 915 1245 L 917 1247 L 924 1250 L 926 1252 L 929 1252 L 936 1257 L 938 1257 L 946 1261 L 948 1263 L 950 1263 L 954 1265 L 956 1267 L 960 1268 L 965 1272 L 969 1273 L 974 1277 L 979 1279 L 982 1284 L 982 1286 L 981 1287 L 981 1291 L 980 1292 L 977 1303 L 975 1305 L 975 1308 L 973 1312 L 971 1314 L 971 1317 L 966 1326 L 966 1328 L 964 1330 L 964 1332 L 961 1336 L 961 1338 L 957 1346 L 955 1348 L 955 1350 L 951 1355 L 951 1357 L 944 1367 L 942 1372 L 934 1383 L 935 1383 L 936 1385 L 986 1385 L 986 1382 L 992 1376 L 992 1375 L 994 1374 L 999 1366 L 1001 1365 L 1001 1363 L 1008 1354 L 1009 1351 L 1013 1346 L 1013 1344 L 1016 1341 L 1016 1339 L 1024 1324 L 1024 1322 L 1031 1308 L 1031 1305 L 1033 1302 L 1034 1297 L 1036 1294 L 1036 1292 L 1038 1288 L 1038 1285 L 1040 1281 L 1040 1278 L 1042 1274 L 1042 1271 L 1043 1270 L 1043 1267 L 1044 1266 L 1044 1263 L 1045 1262 L 1045 1258 L 1046 1257 L 1046 1253 L 1047 1252 L 1047 1248 L 1048 1247 L 1048 1243 L 1049 1242 L 1050 1230 L 1051 1229 L 1051 1222 L 1052 1221 L 1052 1211 L 1053 1210 L 1054 1185 L 1055 1184 L 1060 1184 L 1039 1184 L 1038 1183 L 1027 1183 L 1026 1182 L 1018 1182 L 1017 1181 L 1012 1181 L 1011 1180 L 1008 1180 L 1007 1179 L 1001 1179 L 1000 1178 L 996 1178 L 995 1177 L 990 1177 L 989 1176 L 981 1175 L 980 1174 L 974 1173 L 973 1172 L 970 1172 L 969 1171 L 965 1171 L 961 1169 L 957 1169 L 954 1167 L 949 1167 L 942 1164 L 939 1164 L 938 1163 L 935 1163 L 934 1162 L 932 1162 L 925 1159 L 922 1159 L 919 1157 L 917 1157 L 913 1155 Z" fill="#76303a" stroke="#76303a" stroke-width="1" stroke-linejoin="round" fill-rule="evenodd"/>
<path d="M 513 1016 L 512 1026 L 511 1027 L 509 1040 L 508 1041 L 508 1046 L 506 1049 L 506 1054 L 502 1066 L 501 1074 L 499 1078 L 499 1083 L 495 1093 L 495 1096 L 491 1107 L 491 1110 L 488 1116 L 486 1125 L 484 1128 L 484 1131 L 482 1134 L 477 1151 L 473 1159 L 473 1162 L 470 1167 L 470 1169 L 468 1171 L 468 1174 L 466 1177 L 466 1179 L 461 1187 L 461 1190 L 458 1195 L 458 1197 L 456 1199 L 456 1201 L 454 1203 L 454 1205 L 450 1211 L 450 1213 L 446 1219 L 446 1221 L 444 1223 L 443 1227 L 440 1230 L 439 1235 L 435 1240 L 432 1247 L 430 1249 L 420 1267 L 406 1288 L 400 1295 L 400 1297 L 397 1299 L 397 1301 L 395 1302 L 384 1317 L 363 1341 L 358 1345 L 336 1368 L 327 1375 L 326 1377 L 316 1384 L 314 1384 L 314 1385 L 361 1385 L 363 1382 L 367 1380 L 367 1379 L 375 1372 L 377 1372 L 379 1369 L 390 1361 L 391 1359 L 396 1355 L 398 1355 L 400 1352 L 408 1347 L 410 1344 L 414 1342 L 417 1338 L 421 1336 L 425 1332 L 428 1331 L 433 1325 L 437 1323 L 444 1317 L 448 1312 L 468 1295 L 470 1291 L 481 1281 L 484 1276 L 487 1274 L 491 1268 L 494 1266 L 495 1263 L 497 1262 L 499 1258 L 505 1251 L 505 1249 L 512 1240 L 512 1238 L 515 1236 L 515 1233 L 518 1229 L 520 1223 L 524 1217 L 524 1215 L 527 1212 L 527 1208 L 525 1205 L 525 1202 L 523 1198 L 523 1194 L 521 1190 L 521 1186 L 519 1182 L 518 1169 L 516 1164 L 515 1152 L 514 1151 L 514 1146 L 513 1145 L 513 1132 L 512 1131 L 512 1125 L 511 1124 L 512 1123 L 511 1122 L 511 1107 L 510 1106 L 510 1048 L 511 1047 L 511 1031 L 512 1030 Z" fill="#76303a" stroke="#76303a" stroke-width="1" stroke-linejoin="round" fill-rule="evenodd"/>
<path d="M 545 920 L 544 926 L 543 927 L 542 942 L 541 943 L 541 948 L 539 952 L 539 956 L 539 953 L 540 952 L 544 960 L 544 962 L 546 964 L 546 966 L 551 976 L 553 978 L 553 980 L 555 982 L 558 989 L 561 993 L 561 995 L 563 997 L 564 1000 L 567 1003 L 568 1006 L 570 1008 L 572 1012 L 575 1015 L 579 1022 L 592 1037 L 592 1038 L 596 1042 L 596 1043 L 597 1043 L 598 1045 L 604 1051 L 606 1052 L 607 1055 L 609 1055 L 610 1057 L 619 1066 L 620 1066 L 622 1069 L 629 1073 L 631 1076 L 635 1078 L 646 1087 L 647 1087 L 664 1099 L 670 1102 L 672 1102 L 675 1105 L 681 1107 L 684 1110 L 687 1110 L 694 1114 L 696 1114 L 699 1116 L 704 1117 L 709 1120 L 712 1120 L 715 1122 L 718 1122 L 724 1125 L 732 1126 L 735 1128 L 738 1128 L 739 1129 L 742 1129 L 743 1130 L 748 1130 L 751 1132 L 757 1132 L 758 1133 L 764 1133 L 765 1134 L 772 1134 L 776 1136 L 778 1135 L 780 1138 L 777 1134 L 775 1126 L 773 1125 L 773 1122 L 770 1117 L 770 1115 L 768 1112 L 768 1110 L 766 1107 L 766 1105 L 762 1097 L 762 1094 L 760 1092 L 759 1087 L 757 1084 L 757 1081 L 756 1080 L 756 1075 L 755 1074 L 745 1074 L 744 1073 L 741 1073 L 740 1072 L 734 1072 L 733 1071 L 729 1071 L 728 1070 L 723 1070 L 719 1068 L 714 1068 L 711 1066 L 707 1066 L 704 1064 L 701 1064 L 700 1063 L 692 1061 L 689 1059 L 684 1058 L 680 1055 L 675 1054 L 673 1052 L 668 1051 L 665 1048 L 663 1048 L 659 1045 L 657 1045 L 655 1043 L 653 1043 L 652 1041 L 647 1039 L 641 1034 L 635 1031 L 632 1028 L 631 1028 L 628 1025 L 623 1022 L 609 1009 L 608 1009 L 607 1007 L 601 1001 L 599 1000 L 599 999 L 583 982 L 583 981 L 576 973 L 574 969 L 568 962 L 565 956 L 562 953 L 560 948 L 558 946 L 556 941 L 554 939 L 552 934 L 550 932 L 545 922 Z" fill="#76303a" stroke="#76303a" stroke-width="1" stroke-linejoin="round" fill-rule="evenodd"/>
<path d="M 1031 429 L 1031 430 L 1033 433 L 1033 435 L 1035 438 L 1035 440 L 1036 441 L 1036 442 L 1038 445 L 1038 447 L 1040 450 L 1040 453 L 1042 456 L 1042 458 L 1043 459 L 1043 461 L 1044 462 L 1044 465 L 1045 466 L 1045 468 L 1046 469 L 1046 471 L 1047 472 L 1047 476 L 1048 477 L 1048 480 L 1049 481 L 1049 485 L 1050 486 L 1050 489 L 1051 490 L 1051 494 L 1052 495 L 1052 497 L 1053 498 L 1053 503 L 1054 504 L 1054 507 L 1055 508 L 1055 512 L 1056 513 L 1056 515 L 1057 516 L 1057 519 L 1058 520 L 1058 523 L 1059 524 L 1059 527 L 1060 528 L 1060 532 L 1061 533 L 1060 534 L 1060 535 L 1062 538 L 1062 546 L 1064 549 L 1064 555 L 1065 556 L 1065 561 L 1066 562 L 1066 567 L 1067 568 L 1067 574 L 1068 575 L 1068 581 L 1069 582 L 1069 591 L 1071 593 L 1071 611 L 1072 612 L 1072 650 L 1073 651 L 1072 652 L 1072 663 L 1074 663 L 1075 664 L 1082 664 L 1083 665 L 1088 665 L 1089 666 L 1087 664 L 1088 663 L 1088 648 L 1087 647 L 1087 636 L 1088 635 L 1087 634 L 1087 619 L 1086 618 L 1086 609 L 1085 608 L 1085 599 L 1084 598 L 1084 594 L 1083 593 L 1083 586 L 1082 585 L 1082 581 L 1081 580 L 1081 575 L 1080 574 L 1080 570 L 1079 569 L 1079 564 L 1078 563 L 1078 559 L 1077 558 L 1077 555 L 1076 554 L 1076 549 L 1075 548 L 1075 545 L 1074 544 L 1074 540 L 1073 539 L 1073 537 L 1072 536 L 1072 532 L 1070 529 L 1070 526 L 1069 525 L 1069 522 L 1068 521 L 1068 519 L 1066 516 L 1066 513 L 1065 512 L 1065 510 L 1064 509 L 1064 507 L 1063 506 L 1063 503 L 1061 500 L 1061 496 L 1059 494 L 1059 492 L 1058 491 L 1058 489 L 1056 486 L 1056 483 L 1053 478 L 1053 476 L 1050 471 L 1050 469 L 1049 468 L 1049 467 L 1045 460 L 1045 458 L 1044 457 L 1043 454 L 1041 452 L 1041 450 L 1039 448 L 1039 446 L 1038 445 L 1038 443 L 1036 441 L 1036 439 L 1035 438 L 1035 437 L 1034 436 L 1034 435 L 1033 434 Z" fill="#76303a" stroke="#76303a" stroke-width="1" stroke-linejoin="round" fill-rule="evenodd"/>
<path d="M 825 408 L 822 414 L 822 416 L 820 419 L 820 421 L 819 422 L 818 427 L 815 431 L 815 435 L 813 436 L 813 439 L 811 442 L 811 445 L 809 448 L 808 455 L 806 458 L 806 460 L 805 461 L 805 463 L 803 467 L 803 471 L 801 475 L 801 479 L 800 480 L 800 482 L 798 486 L 798 489 L 797 490 L 797 494 L 796 495 L 796 499 L 794 503 L 794 510 L 793 511 L 793 514 L 791 518 L 791 523 L 790 524 L 790 528 L 789 529 L 789 535 L 788 536 L 788 541 L 787 542 L 787 548 L 786 549 L 786 558 L 785 559 L 785 568 L 784 569 L 784 580 L 783 581 L 783 591 L 782 592 L 782 648 L 783 649 L 783 663 L 784 664 L 784 671 L 785 672 L 785 682 L 786 683 L 786 692 L 787 693 L 787 698 L 788 699 L 788 705 L 794 699 L 794 698 L 800 692 L 800 691 L 803 689 L 803 688 L 806 685 L 806 684 L 821 667 L 820 668 L 818 667 L 817 665 L 817 662 L 816 661 L 816 659 L 814 655 L 814 651 L 813 650 L 813 647 L 812 646 L 812 643 L 811 642 L 811 639 L 810 638 L 810 634 L 809 633 L 809 628 L 808 627 L 808 623 L 807 622 L 807 617 L 805 613 L 805 607 L 804 606 L 804 600 L 803 599 L 803 587 L 802 586 L 802 575 L 801 574 L 802 572 L 801 571 L 801 527 L 802 526 L 802 511 L 803 510 L 803 500 L 804 499 L 804 493 L 805 492 L 805 486 L 806 485 L 806 482 L 807 481 L 807 475 L 808 474 L 808 470 L 809 469 L 809 466 L 810 465 L 810 460 L 811 459 L 811 455 L 812 454 L 812 450 L 813 449 L 813 444 L 815 441 L 815 437 L 817 433 L 818 426 L 820 424 L 820 420 L 822 417 L 822 414 Z" fill="#76303a" stroke="#76303a" stroke-width="1" stroke-linejoin="round" fill-rule="evenodd"/>
<path d="M 914 168 L 915 170 L 921 171 L 925 174 L 930 174 L 933 176 L 936 176 L 938 178 L 940 178 L 943 180 L 945 180 L 951 183 L 953 183 L 957 186 L 961 186 L 963 188 L 967 190 L 969 190 L 971 192 L 973 192 L 982 197 L 985 197 L 987 198 L 994 189 L 997 183 L 1001 179 L 1001 177 L 1004 174 L 1005 174 L 1006 171 L 1008 169 L 1009 169 L 1011 165 L 1016 160 L 1016 159 L 1024 151 L 1024 150 L 1026 149 L 1026 148 L 1028 147 L 1028 146 L 1030 145 L 1032 143 L 1032 142 L 1040 135 L 1041 135 L 1044 132 L 1047 131 L 1048 129 L 1053 127 L 1056 124 L 1058 124 L 1062 122 L 1065 122 L 1066 121 L 1077 121 L 1079 123 L 1081 123 L 1085 127 L 1088 134 L 1088 137 L 1087 138 L 1088 139 L 1088 144 L 1089 145 L 1089 154 L 1090 155 L 1090 181 L 1089 182 L 1089 198 L 1088 199 L 1088 208 L 1087 209 L 1087 220 L 1086 221 L 1086 229 L 1085 230 L 1084 244 L 1083 245 L 1083 255 L 1081 258 L 1079 257 L 1083 259 L 1088 264 L 1092 266 L 1092 264 L 1093 263 L 1093 257 L 1094 256 L 1094 249 L 1095 248 L 1095 244 L 1096 243 L 1096 235 L 1097 234 L 1097 223 L 1098 222 L 1098 213 L 1099 212 L 1098 210 L 1099 209 L 1099 195 L 1100 194 L 1100 170 L 1101 169 L 1100 168 L 1101 167 L 1101 152 L 1100 151 L 1100 139 L 1099 138 L 1099 132 L 1098 131 L 1098 127 L 1097 126 L 1097 123 L 1096 122 L 1096 119 L 1095 118 L 1094 113 L 1091 107 L 1082 99 L 1080 99 L 1076 96 L 1072 96 L 1071 95 L 1068 95 L 1067 94 L 1058 94 L 1057 95 L 1051 95 L 1050 96 L 1041 97 L 1037 99 L 1034 99 L 1028 102 L 1025 102 L 1021 105 L 1017 105 L 1015 107 L 1013 107 L 1009 110 L 1007 110 L 1004 112 L 1002 112 L 1000 114 L 998 114 L 996 116 L 992 117 L 985 122 L 983 122 L 979 125 L 970 129 L 960 136 L 957 137 L 954 140 L 951 141 L 948 144 L 946 144 L 942 146 L 940 149 L 939 149 L 930 156 L 926 158 L 922 162 L 917 165 L 915 168 Z" fill="#76303a" stroke="#76303a" stroke-width="1" stroke-linejoin="round" fill-rule="evenodd"/>
<path d="M 695 45 L 676 44 L 653 54 L 637 68 L 636 71 L 631 75 L 611 100 L 607 103 L 607 105 L 592 123 L 591 127 L 577 145 L 557 180 L 554 183 L 551 191 L 546 198 L 545 203 L 535 220 L 518 264 L 516 275 L 513 281 L 513 286 L 511 289 L 506 324 L 507 361 L 512 384 L 524 412 L 535 427 L 551 442 L 568 453 L 594 407 L 595 403 L 621 364 L 616 330 L 617 329 L 616 276 L 622 217 L 626 203 L 627 190 L 630 182 L 634 160 L 636 159 L 637 150 L 647 121 L 651 114 L 652 108 L 659 94 L 669 79 L 680 70 L 690 67 L 703 68 L 711 73 L 719 83 L 718 85 L 717 84 L 724 93 L 735 115 L 749 156 L 760 201 L 762 213 L 761 225 L 768 220 L 774 218 L 773 199 L 765 159 L 757 136 L 757 132 L 743 98 L 737 86 L 723 66 L 711 54 Z" fill="#76303a" stroke="#76303a" stroke-width="1" stroke-linejoin="round" fill-rule="evenodd"/>
<path d="M 1061 1261 L 1061 1265 L 1060 1266 L 1060 1271 L 1059 1272 L 1059 1276 L 1058 1277 L 1058 1280 L 1057 1281 L 1057 1284 L 1056 1285 L 1056 1288 L 1055 1289 L 1055 1292 L 1054 1293 L 1054 1296 L 1053 1297 L 1053 1300 L 1052 1301 L 1052 1303 L 1051 1304 L 1051 1306 L 1050 1307 L 1050 1309 L 1049 1310 L 1049 1312 L 1047 1315 L 1047 1318 L 1046 1319 L 1046 1320 L 1045 1321 L 1045 1323 L 1043 1326 L 1043 1328 L 1042 1329 L 1042 1330 L 1041 1331 L 1041 1332 L 1040 1333 L 1040 1334 L 1037 1339 L 1037 1341 L 1035 1343 L 1035 1344 L 1034 1345 L 1034 1346 L 1032 1348 L 1032 1349 L 1029 1352 L 1029 1353 L 1027 1355 L 1026 1358 L 1022 1362 L 1022 1363 L 1018 1367 L 1018 1368 L 1001 1385 L 1001 1391 L 1003 1393 L 1004 1393 L 1005 1394 L 1008 1394 L 1009 1395 L 1010 1394 L 1013 1394 L 1014 1393 L 1015 1393 L 1016 1392 L 1016 1391 L 1017 1390 L 1018 1390 L 1026 1382 L 1026 1381 L 1029 1378 L 1029 1377 L 1031 1375 L 1031 1374 L 1033 1372 L 1033 1371 L 1035 1369 L 1035 1368 L 1039 1363 L 1039 1362 L 1040 1361 L 1041 1358 L 1043 1356 L 1043 1354 L 1044 1353 L 1044 1352 L 1046 1350 L 1046 1348 L 1047 1347 L 1047 1345 L 1049 1343 L 1049 1340 L 1052 1335 L 1052 1333 L 1053 1332 L 1053 1329 L 1055 1326 L 1055 1322 L 1056 1321 L 1056 1318 L 1057 1317 L 1057 1313 L 1058 1312 L 1058 1306 L 1059 1305 L 1059 1299 L 1060 1298 L 1060 1289 L 1061 1288 Z" fill="#4f121d" stroke="#4f121d" stroke-width="1" stroke-linejoin="round" fill-rule="evenodd"/>
<path d="M 211 1238 L 200 1249 L 200 1250 L 199 1251 L 198 1251 L 198 1252 L 197 1253 L 196 1253 L 196 1254 L 195 1255 L 194 1255 L 194 1256 L 193 1257 L 192 1257 L 192 1258 L 186 1264 L 186 1265 L 182 1269 L 182 1270 L 177 1275 L 177 1276 L 169 1285 L 169 1286 L 167 1288 L 167 1289 L 163 1293 L 163 1294 L 161 1296 L 160 1299 L 157 1302 L 156 1305 L 154 1307 L 154 1308 L 153 1309 L 152 1309 L 152 1311 L 149 1314 L 149 1315 L 148 1316 L 148 1317 L 147 1318 L 147 1319 L 146 1320 L 146 1321 L 145 1322 L 145 1323 L 144 1324 L 144 1325 L 143 1326 L 143 1327 L 142 1328 L 142 1329 L 141 1330 L 141 1331 L 140 1332 L 139 1335 L 137 1337 L 137 1338 L 135 1341 L 135 1343 L 134 1344 L 134 1345 L 131 1350 L 131 1352 L 129 1355 L 129 1358 L 127 1360 L 127 1362 L 126 1363 L 126 1366 L 125 1367 L 125 1369 L 124 1370 L 124 1372 L 123 1373 L 123 1375 L 122 1376 L 122 1378 L 121 1379 L 121 1383 L 120 1384 L 120 1392 L 122 1394 L 124 1394 L 125 1395 L 128 1395 L 129 1394 L 131 1394 L 134 1391 L 134 1390 L 135 1389 L 135 1385 L 136 1384 L 136 1380 L 137 1379 L 137 1377 L 138 1376 L 138 1372 L 139 1371 L 139 1369 L 140 1368 L 140 1366 L 141 1365 L 141 1363 L 142 1362 L 142 1358 L 145 1353 L 145 1351 L 147 1348 L 147 1346 L 148 1345 L 148 1343 L 151 1338 L 151 1336 L 153 1334 L 153 1332 L 156 1327 L 156 1325 L 157 1324 L 158 1321 L 160 1319 L 160 1318 L 162 1315 L 162 1313 L 164 1311 L 164 1309 L 168 1304 L 168 1302 L 172 1297 L 173 1294 L 175 1292 L 175 1291 L 176 1290 L 177 1287 L 179 1285 L 179 1284 L 180 1283 L 180 1282 L 182 1280 L 183 1277 L 185 1275 L 185 1274 L 187 1272 L 187 1271 L 189 1269 L 189 1268 L 191 1266 L 191 1265 L 194 1262 L 195 1259 L 198 1256 L 198 1255 L 204 1248 L 204 1247 L 206 1245 L 206 1244 L 207 1243 L 208 1243 L 208 1242 L 210 1240 L 210 1239 Z" fill="#4f121d" stroke="#4f121d" stroke-width="1" stroke-linejoin="round" fill-rule="evenodd"/>
<path d="M 386 1200 L 386 1202 L 385 1203 L 385 1205 L 383 1208 L 383 1210 L 382 1211 L 382 1213 L 381 1214 L 381 1215 L 380 1216 L 380 1218 L 379 1219 L 379 1222 L 377 1224 L 377 1226 L 376 1227 L 376 1229 L 373 1234 L 373 1236 L 372 1237 L 372 1239 L 370 1242 L 370 1244 L 368 1247 L 368 1249 L 367 1250 L 367 1251 L 365 1254 L 365 1256 L 364 1257 L 364 1258 L 361 1263 L 361 1265 L 360 1266 L 360 1267 L 357 1272 L 357 1274 L 356 1275 L 356 1276 L 355 1277 L 355 1278 L 354 1279 L 354 1280 L 353 1281 L 353 1282 L 352 1283 L 352 1284 L 349 1289 L 349 1291 L 347 1293 L 347 1294 L 346 1295 L 346 1296 L 345 1297 L 344 1300 L 342 1302 L 342 1303 L 341 1304 L 340 1307 L 338 1309 L 338 1310 L 337 1311 L 336 1314 L 332 1319 L 331 1322 L 328 1325 L 327 1328 L 323 1333 L 322 1336 L 319 1339 L 318 1342 L 315 1345 L 315 1346 L 311 1350 L 311 1351 L 308 1354 L 308 1355 L 305 1358 L 305 1359 L 302 1362 L 302 1363 L 295 1370 L 295 1371 L 283 1383 L 283 1384 L 282 1385 L 282 1391 L 285 1394 L 287 1394 L 288 1395 L 290 1395 L 291 1394 L 293 1394 L 294 1393 L 295 1393 L 295 1392 L 296 1391 L 297 1391 L 297 1390 L 298 1389 L 299 1389 L 299 1388 L 307 1380 L 307 1379 L 310 1376 L 310 1375 L 312 1373 L 312 1372 L 316 1368 L 316 1367 L 318 1365 L 318 1364 L 320 1362 L 320 1361 L 323 1358 L 323 1357 L 325 1355 L 326 1352 L 329 1349 L 330 1346 L 332 1344 L 332 1343 L 333 1342 L 333 1340 L 335 1338 L 336 1335 L 338 1333 L 339 1330 L 341 1328 L 341 1327 L 342 1326 L 342 1325 L 343 1324 L 343 1323 L 344 1322 L 344 1321 L 347 1316 L 347 1314 L 349 1312 L 349 1310 L 350 1309 L 350 1308 L 351 1307 L 351 1306 L 352 1305 L 352 1304 L 353 1303 L 353 1302 L 356 1297 L 356 1295 L 357 1294 L 357 1293 L 360 1288 L 360 1286 L 361 1285 L 361 1283 L 363 1280 L 363 1277 L 365 1274 L 365 1272 L 366 1271 L 366 1269 L 367 1268 L 367 1266 L 368 1265 L 368 1263 L 370 1260 L 370 1258 L 371 1257 L 371 1254 L 372 1253 L 372 1251 L 373 1250 L 373 1248 L 374 1247 L 374 1245 L 375 1244 L 375 1242 L 376 1241 L 376 1238 L 377 1237 L 377 1235 L 378 1234 L 378 1231 L 379 1230 L 379 1228 L 380 1227 L 380 1224 L 381 1223 L 381 1220 L 382 1219 L 382 1215 L 383 1214 L 383 1211 L 384 1210 L 384 1208 L 385 1207 L 385 1203 L 386 1202 Z" fill="#4f121d" stroke="#4f121d" stroke-width="1" stroke-linejoin="round" fill-rule="evenodd"/>
<path d="M 596 1156 L 596 1181 L 597 1182 L 598 1199 L 599 1200 L 599 1206 L 600 1207 L 601 1218 L 602 1219 L 603 1227 L 604 1228 L 605 1235 L 607 1239 L 607 1242 L 608 1243 L 608 1245 L 613 1258 L 613 1261 L 618 1274 L 618 1277 L 619 1278 L 619 1280 L 621 1284 L 621 1287 L 624 1294 L 624 1297 L 626 1301 L 626 1304 L 629 1309 L 630 1315 L 635 1325 L 635 1327 L 640 1337 L 640 1339 L 643 1344 L 643 1346 L 645 1348 L 648 1354 L 648 1356 L 656 1372 L 658 1374 L 659 1377 L 663 1383 L 671 1392 L 671 1393 L 675 1395 L 681 1395 L 685 1392 L 685 1385 L 677 1376 L 674 1370 L 666 1359 L 664 1355 L 664 1353 L 662 1351 L 659 1345 L 658 1341 L 655 1338 L 655 1336 L 656 1335 L 664 1343 L 665 1343 L 672 1350 L 677 1353 L 682 1358 L 686 1360 L 695 1367 L 703 1371 L 708 1375 L 712 1376 L 714 1378 L 721 1381 L 723 1383 L 722 1385 L 723 1384 L 726 1384 L 727 1385 L 733 1385 L 736 1387 L 738 1387 L 739 1388 L 744 1389 L 747 1391 L 753 1392 L 757 1394 L 766 1394 L 768 1393 L 770 1390 L 770 1384 L 769 1384 L 766 1381 L 759 1380 L 758 1379 L 750 1377 L 747 1375 L 739 1373 L 737 1371 L 735 1371 L 730 1368 L 726 1367 L 724 1365 L 722 1365 L 720 1363 L 717 1362 L 715 1360 L 712 1359 L 706 1355 L 703 1352 L 691 1344 L 686 1339 L 685 1339 L 684 1337 L 683 1337 L 661 1315 L 661 1314 L 659 1313 L 654 1305 L 652 1304 L 649 1298 L 646 1295 L 645 1292 L 641 1287 L 640 1284 L 637 1281 L 636 1277 L 634 1275 L 631 1268 L 629 1266 L 626 1260 L 626 1258 L 624 1256 L 624 1254 L 621 1249 L 621 1247 L 618 1242 L 618 1240 L 615 1234 L 615 1232 L 614 1231 L 614 1229 L 609 1216 L 609 1213 L 606 1206 L 606 1203 L 605 1202 L 605 1199 L 604 1198 L 604 1195 L 602 1190 L 602 1186 L 600 1181 L 600 1177 L 599 1176 L 599 1171 L 597 1166 L 597 1160 L 596 1159 Z" fill="#4f121d" stroke="#4f121d" stroke-width="1" stroke-linejoin="round" fill-rule="evenodd"/>
<path d="M 1110 1010 L 1101 1010 L 1100 1009 L 1094 1009 L 1093 1010 L 1085 1010 L 1084 1011 L 1081 1011 L 1080 1012 L 1078 1012 L 1077 1013 L 1075 1013 L 1072 1015 L 1070 1015 L 1068 1017 L 1067 1017 L 1064 1020 L 1066 1020 L 1067 1019 L 1070 1019 L 1071 1018 L 1074 1018 L 1075 1017 L 1078 1017 L 1079 1016 L 1084 1016 L 1085 1015 L 1091 1015 L 1092 1014 L 1100 1014 L 1101 1013 L 1105 1013 L 1106 1012 L 1107 1012 L 1109 1010 Z" fill="#4f121d" stroke="#4f121d" stroke-width="1" stroke-linejoin="round" fill-rule="evenodd"/>
<path d="M 1095 86 L 1066 76 L 1018 86 L 887 163 L 781 148 L 733 50 L 704 29 L 669 27 L 602 81 L 525 202 L 455 251 L 398 310 L 336 411 L 302 516 L 287 630 L 282 855 L 246 1008 L 186 1129 L 60 1296 L 31 1363 L 30 1394 L 41 1391 L 86 1287 L 191 1152 L 236 1076 L 282 947 L 300 845 L 310 998 L 289 1168 L 321 991 L 304 713 L 319 521 L 342 443 L 383 361 L 437 292 L 508 232 L 488 318 L 491 375 L 518 434 L 562 469 L 518 596 L 503 706 L 507 790 L 532 888 L 511 1048 L 514 1145 L 528 1212 L 469 1295 L 362 1390 L 660 1392 L 575 1282 L 537 1181 L 528 1047 L 545 919 L 584 982 L 635 1030 L 692 1060 L 757 1075 L 805 1189 L 889 1301 L 813 1268 L 750 1197 L 759 1224 L 826 1325 L 906 1393 L 935 1385 L 981 1286 L 882 1228 L 906 1154 L 1039 1183 L 1075 1180 L 1099 1159 L 1114 1279 L 1101 1337 L 1072 1385 L 1087 1392 L 1118 1339 L 1130 1284 L 1111 1088 L 1138 1043 L 1136 1017 L 1159 993 L 1159 947 L 1204 876 L 1201 856 L 1131 795 L 1118 740 L 1155 731 L 1122 723 L 1141 684 L 1219 675 L 1228 584 L 1202 427 L 1165 353 L 1108 283 L 1119 154 L 1111 109 Z M 937 1349 L 938 1350 L 938 1351 L 935 1354 L 935 1355 L 934 1356 L 934 1357 L 933 1358 L 932 1361 L 930 1363 L 930 1365 L 926 1369 L 926 1372 L 923 1375 L 923 1376 L 921 1379 L 918 1379 L 917 1378 L 917 1375 L 920 1372 L 920 1371 L 922 1369 L 922 1368 L 924 1366 L 925 1366 L 925 1365 L 926 1364 L 927 1361 L 930 1358 L 930 1357 L 933 1354 L 933 1353 Z M 931 1327 L 932 1328 L 932 1330 L 931 1331 L 931 1332 L 928 1335 L 928 1336 L 927 1337 L 926 1337 L 925 1336 L 925 1334 L 927 1332 L 927 1330 L 928 1329 L 929 1329 Z M 918 1325 L 919 1326 L 919 1328 L 921 1328 L 922 1329 L 921 1330 L 921 1332 L 920 1333 L 920 1335 L 919 1336 L 918 1336 L 917 1335 L 917 1341 L 915 1343 L 915 1345 L 913 1347 L 911 1345 L 911 1347 L 912 1348 L 912 1349 L 910 1352 L 910 1354 L 909 1355 L 909 1357 L 906 1360 L 906 1361 L 905 1362 L 905 1364 L 904 1365 L 903 1365 L 903 1366 L 901 1368 L 900 1367 L 898 1367 L 897 1366 L 896 1366 L 894 1364 L 894 1362 L 893 1362 L 892 1361 L 893 1360 L 892 1359 L 892 1358 L 894 1355 L 894 1351 L 895 1350 L 896 1350 L 896 1348 L 897 1347 L 897 1345 L 899 1343 L 899 1341 L 900 1340 L 900 1339 L 903 1334 L 903 1332 L 905 1330 L 905 1328 L 906 1327 L 906 1326 L 907 1325 Z M 893 1320 L 894 1321 L 896 1321 L 897 1322 L 899 1322 L 900 1323 L 900 1324 L 899 1325 L 897 1325 L 897 1326 L 898 1327 L 898 1331 L 897 1332 L 897 1334 L 896 1335 L 895 1335 L 895 1338 L 893 1340 L 893 1343 L 891 1345 L 891 1350 L 890 1351 L 889 1351 L 889 1352 L 888 1353 L 888 1357 L 887 1358 L 885 1358 L 884 1357 L 884 1356 L 882 1354 L 881 1354 L 879 1351 L 878 1351 L 877 1350 L 877 1349 L 879 1346 L 879 1344 L 881 1342 L 881 1339 L 882 1338 L 882 1337 L 885 1332 L 885 1329 L 887 1327 L 887 1324 L 888 1323 L 888 1321 L 889 1320 Z M 870 1314 L 872 1314 L 875 1316 L 878 1316 L 880 1318 L 882 1318 L 883 1319 L 882 1320 L 882 1321 L 879 1323 L 880 1324 L 880 1327 L 877 1329 L 877 1331 L 876 1332 L 876 1333 L 877 1334 L 875 1336 L 875 1338 L 873 1341 L 873 1344 L 872 1345 L 871 1344 L 871 1343 L 868 1343 L 867 1342 L 867 1339 L 868 1338 L 865 1338 L 862 1336 L 862 1333 L 863 1332 L 863 1330 L 864 1329 L 864 1325 L 865 1324 L 865 1322 L 867 1320 L 867 1317 Z M 826 1295 L 828 1295 L 829 1296 L 830 1296 L 831 1297 L 832 1297 L 837 1300 L 839 1300 L 841 1302 L 842 1302 L 845 1304 L 848 1304 L 850 1306 L 854 1306 L 856 1308 L 857 1308 L 860 1310 L 863 1310 L 864 1311 L 862 1313 L 862 1317 L 861 1318 L 860 1318 L 860 1323 L 858 1326 L 858 1328 L 856 1330 L 854 1328 L 853 1328 L 851 1326 L 851 1325 L 846 1320 L 846 1319 L 845 1318 L 845 1316 L 842 1316 L 840 1314 L 840 1313 L 838 1311 L 838 1310 L 837 1310 L 834 1308 L 834 1306 L 832 1304 L 832 1303 L 831 1303 L 826 1298 L 826 1297 L 825 1296 Z M 948 1283 L 949 1284 L 949 1285 L 950 1285 L 951 1286 L 954 1286 L 956 1288 L 957 1291 L 955 1294 L 955 1296 L 953 1298 L 953 1302 L 952 1303 L 951 1302 L 951 1301 L 951 1304 L 949 1306 L 949 1307 L 948 1308 L 948 1309 L 946 1311 L 945 1314 L 944 1315 L 943 1315 L 941 1317 L 938 1317 L 939 1317 L 940 1318 L 939 1319 L 939 1321 L 938 1322 L 937 1322 L 937 1324 L 936 1325 L 935 1325 L 934 1324 L 934 1323 L 935 1322 L 935 1318 L 934 1317 L 934 1314 L 935 1313 L 935 1310 L 936 1309 L 936 1306 L 937 1305 L 937 1303 L 939 1301 L 939 1298 L 940 1297 L 940 1294 L 943 1289 L 943 1284 L 944 1283 Z M 926 1272 L 927 1272 L 928 1273 L 931 1274 L 933 1276 L 935 1276 L 940 1279 L 940 1281 L 939 1282 L 938 1282 L 938 1287 L 936 1289 L 936 1292 L 934 1295 L 934 1298 L 932 1300 L 932 1302 L 930 1305 L 930 1309 L 929 1310 L 927 1308 L 928 1305 L 928 1306 L 927 1307 L 926 1307 L 925 1306 L 924 1306 L 922 1304 L 921 1304 L 917 1300 L 917 1298 L 918 1297 L 918 1292 L 919 1291 L 920 1291 L 920 1290 L 921 1289 L 921 1287 L 922 1286 L 922 1282 L 923 1281 L 923 1277 Z M 905 1263 L 907 1263 L 908 1264 L 910 1264 L 911 1265 L 912 1265 L 914 1267 L 918 1267 L 920 1269 L 920 1272 L 918 1275 L 918 1279 L 917 1280 L 917 1281 L 915 1283 L 915 1285 L 914 1286 L 914 1289 L 913 1290 L 913 1292 L 911 1294 L 909 1292 L 907 1292 L 905 1290 L 905 1288 L 901 1288 L 899 1285 L 899 1282 L 900 1281 L 900 1275 L 902 1273 L 902 1268 L 904 1266 L 905 1266 L 905 1265 L 904 1264 Z M 637 1383 L 636 1384 L 400 1384 L 399 1383 L 399 1380 L 398 1379 L 401 1377 L 401 1375 L 402 1374 L 406 1373 L 406 1372 L 408 1371 L 410 1368 L 413 1368 L 413 1366 L 419 1361 L 420 1361 L 421 1359 L 425 1358 L 425 1356 L 426 1355 L 430 1356 L 431 1355 L 430 1356 L 428 1355 L 431 1352 L 433 1353 L 432 1351 L 434 1350 L 437 1346 L 439 1346 L 439 1344 L 440 1343 L 443 1343 L 443 1342 L 445 1340 L 446 1340 L 448 1337 L 452 1338 L 451 1337 L 451 1335 L 452 1334 L 454 1334 L 455 1332 L 458 1332 L 458 1329 L 463 1325 L 464 1325 L 467 1321 L 469 1321 L 469 1318 L 470 1317 L 474 1317 L 475 1315 L 474 1314 L 475 1313 L 477 1313 L 480 1310 L 481 1312 L 483 1311 L 484 1305 L 489 1301 L 489 1299 L 490 1298 L 492 1298 L 492 1297 L 497 1293 L 500 1287 L 502 1286 L 506 1281 L 507 1281 L 508 1277 L 509 1276 L 511 1276 L 512 1273 L 515 1271 L 515 1268 L 517 1267 L 517 1265 L 520 1262 L 520 1261 L 521 1260 L 523 1260 L 524 1258 L 524 1255 L 530 1248 L 530 1244 L 532 1242 L 533 1242 L 534 1239 L 536 1238 L 538 1241 L 538 1245 L 544 1256 L 543 1257 L 543 1259 L 545 1258 L 546 1259 L 546 1262 L 548 1265 L 547 1269 L 548 1268 L 550 1269 L 552 1273 L 552 1275 L 555 1279 L 555 1281 L 558 1284 L 558 1288 L 561 1291 L 562 1297 L 563 1298 L 565 1298 L 566 1299 L 566 1301 L 568 1302 L 568 1305 L 567 1306 L 569 1305 L 572 1309 L 573 1312 L 576 1314 L 576 1318 L 577 1320 L 578 1320 L 580 1322 L 581 1325 L 582 1325 L 583 1327 L 586 1329 L 587 1333 L 591 1335 L 591 1337 L 593 1341 L 595 1343 L 596 1343 L 598 1345 L 598 1346 L 599 1346 L 600 1348 L 601 1348 L 603 1350 L 604 1352 L 605 1351 L 606 1352 L 607 1358 L 611 1358 L 613 1360 L 613 1362 L 616 1365 L 618 1365 L 621 1368 L 623 1373 L 626 1373 L 628 1375 L 628 1376 L 631 1378 L 632 1381 L 636 1382 Z M 857 1237 L 858 1237 L 862 1241 L 864 1241 L 867 1243 L 869 1243 L 870 1244 L 871 1244 L 873 1246 L 875 1246 L 876 1247 L 878 1247 L 883 1252 L 886 1252 L 887 1253 L 888 1253 L 890 1255 L 894 1255 L 895 1256 L 895 1258 L 897 1258 L 899 1260 L 899 1261 L 897 1263 L 896 1263 L 896 1267 L 897 1268 L 897 1270 L 895 1273 L 895 1277 L 893 1280 L 892 1279 L 891 1279 L 890 1278 L 890 1277 L 889 1277 L 888 1276 L 888 1275 L 885 1273 L 885 1272 L 882 1269 L 882 1268 L 881 1268 L 879 1266 L 879 1265 L 876 1262 L 875 1259 L 874 1258 L 873 1258 L 869 1254 L 869 1253 L 867 1251 L 866 1251 L 865 1250 L 864 1247 L 857 1240 L 857 1239 L 856 1238 Z M 1002 746 L 1003 747 L 1005 747 L 1006 748 L 1007 748 L 1009 750 L 1009 762 L 1008 763 L 1008 769 L 1007 770 L 1007 774 L 1006 775 L 1006 778 L 1005 779 L 1005 782 L 1004 783 L 1004 784 L 1003 785 L 1003 786 L 1002 787 L 1001 790 L 996 795 L 995 795 L 994 796 L 992 796 L 991 797 L 989 797 L 988 796 L 986 796 L 985 795 L 984 795 L 978 789 L 978 788 L 976 786 L 976 785 L 974 782 L 974 780 L 973 779 L 973 776 L 972 775 L 972 773 L 971 772 L 971 768 L 970 767 L 970 760 L 971 759 L 971 758 L 973 756 L 976 756 L 977 757 L 977 759 L 978 760 L 978 763 L 979 764 L 980 767 L 985 770 L 989 770 L 991 768 L 992 768 L 992 767 L 994 765 L 994 764 L 996 761 L 996 759 L 997 758 L 997 754 L 998 753 L 998 748 L 1000 746 Z M 996 624 L 997 623 L 1018 623 L 1019 624 L 1027 624 L 1028 625 L 1034 625 L 1035 626 L 1038 626 L 1039 627 L 1041 627 L 1042 628 L 1043 628 L 1044 629 L 1044 632 L 1043 633 L 1043 641 L 1042 642 L 1042 649 L 1041 650 L 1041 657 L 1040 658 L 1040 662 L 1039 663 L 1035 663 L 1034 662 L 1027 662 L 1026 661 L 1020 661 L 1019 660 L 1015 660 L 1014 659 L 1009 659 L 1008 658 L 1005 658 L 1004 657 L 1001 657 L 1000 656 L 1000 650 L 999 649 L 999 643 L 998 642 L 998 636 L 997 635 L 997 631 L 996 630 Z M 945 470 L 978 606 L 911 629 L 858 665 L 916 638 L 979 623 L 987 665 L 996 669 L 957 678 L 926 695 L 982 676 L 1005 675 L 1019 680 L 1010 689 L 981 691 L 924 715 L 898 717 L 914 723 L 879 745 L 927 777 L 913 756 L 913 748 L 934 732 L 966 717 L 965 728 L 980 728 L 984 738 L 976 746 L 963 745 L 966 776 L 977 798 L 959 793 L 1007 807 L 1000 800 L 1009 785 L 1014 763 L 1010 714 L 1049 728 L 1028 707 L 1045 702 L 1030 699 L 1015 689 L 1021 680 L 1030 683 L 1024 674 L 1047 676 L 1057 608 L 1060 676 L 1120 685 L 1101 740 L 1101 766 L 1108 788 L 1132 824 L 1153 844 L 1186 865 L 1187 875 L 1173 903 L 1142 943 L 1140 968 L 1144 985 L 1119 1012 L 1122 1037 L 1099 1070 L 1090 1135 L 1081 1155 L 1072 1163 L 1056 1167 L 1008 1162 L 935 1144 L 822 1105 L 892 1144 L 879 1171 L 864 1221 L 836 1207 L 794 1129 L 773 1073 L 834 1076 L 863 1072 L 907 1058 L 922 1049 L 927 1040 L 849 980 L 816 943 L 788 901 L 866 947 L 882 953 L 892 950 L 826 833 L 802 771 L 792 727 L 846 665 L 884 609 L 919 542 Z M 786 165 L 869 175 L 955 203 L 1034 245 L 1090 289 L 1138 343 L 1173 401 L 1200 479 L 1211 559 L 1205 661 L 1199 662 L 1199 571 L 1189 516 L 1193 607 L 1184 666 L 1159 669 L 1156 550 L 1141 484 L 1118 429 L 1138 495 L 1146 554 L 1139 667 L 1072 664 L 1063 549 L 1023 415 L 1045 526 L 1044 616 L 992 605 L 940 400 L 929 466 L 899 546 L 850 630 L 788 706 L 781 648 L 785 549 L 802 467 L 826 402 L 800 453 L 778 521 L 767 588 L 766 659 L 774 726 L 794 799 L 857 925 L 803 891 L 772 861 L 735 809 L 711 754 L 729 814 L 791 935 L 851 1005 L 901 1041 L 838 1059 L 802 1058 L 757 1046 L 690 1004 L 637 938 L 612 882 L 598 829 L 611 898 L 640 964 L 686 1019 L 738 1054 L 684 1039 L 625 1000 L 583 952 L 551 893 L 529 820 L 520 754 L 529 623 L 573 485 L 621 395 L 684 309 L 756 242 L 825 207 L 792 211 Z M 913 168 L 926 157 L 940 148 L 942 145 L 946 143 L 948 143 L 951 140 L 954 139 L 957 136 L 960 135 L 970 128 L 979 124 L 983 121 L 985 121 L 992 116 L 996 115 L 1002 111 L 1004 111 L 1007 109 L 1011 108 L 1013 106 L 1015 106 L 1017 104 L 1021 104 L 1025 101 L 1028 101 L 1034 98 L 1037 98 L 1041 96 L 1045 96 L 1046 95 L 1050 95 L 1051 94 L 1057 94 L 1058 93 L 1067 93 L 1072 95 L 1076 95 L 1078 97 L 1082 98 L 1092 107 L 1095 113 L 1095 115 L 1097 119 L 1097 122 L 1098 123 L 1098 126 L 1099 127 L 1099 131 L 1100 132 L 1100 138 L 1101 139 L 1101 151 L 1102 152 L 1102 167 L 1101 168 L 1102 169 L 1101 170 L 1101 194 L 1100 195 L 1100 209 L 1099 210 L 1100 212 L 1099 213 L 1099 222 L 1098 223 L 1097 243 L 1096 244 L 1096 248 L 1095 249 L 1095 256 L 1094 257 L 1094 263 L 1093 264 L 1093 266 L 1091 267 L 1088 265 L 1083 260 L 1080 259 L 1067 248 L 1035 226 L 999 206 L 999 204 L 1001 200 L 1021 171 L 1037 153 L 1037 152 L 1039 151 L 1039 150 L 1041 149 L 1041 148 L 1053 137 L 1060 132 L 1071 127 L 1077 127 L 1078 128 L 1080 128 L 1086 134 L 1087 137 L 1086 131 L 1084 127 L 1081 124 L 1079 124 L 1077 122 L 1066 122 L 1065 123 L 1062 123 L 1061 124 L 1056 125 L 1053 128 L 1048 130 L 1047 132 L 1044 133 L 1035 141 L 1034 141 L 1033 143 L 1029 146 L 1029 147 L 1027 148 L 1027 149 L 1025 150 L 1025 151 L 1017 159 L 1017 160 L 1012 165 L 1010 169 L 1007 171 L 1006 174 L 1002 177 L 1002 179 L 998 183 L 995 189 L 987 199 L 982 198 L 973 193 L 971 193 L 969 191 L 967 191 L 963 189 L 961 187 L 957 187 L 953 184 L 951 184 L 948 182 L 938 179 L 936 177 L 933 177 L 930 175 L 925 175 L 921 172 L 915 171 Z M 695 44 L 711 53 L 724 66 L 738 86 L 758 132 L 766 159 L 774 199 L 775 218 L 736 241 L 706 265 L 664 308 L 634 347 L 630 347 L 628 285 L 633 230 L 641 184 L 656 130 L 670 97 L 677 86 L 686 77 L 694 73 L 704 73 L 710 76 L 718 84 L 711 74 L 703 69 L 690 68 L 680 71 L 670 79 L 653 108 L 638 150 L 628 190 L 627 203 L 623 217 L 617 276 L 617 330 L 622 364 L 596 403 L 568 454 L 551 443 L 534 427 L 523 412 L 511 384 L 506 361 L 505 324 L 510 289 L 517 264 L 530 233 L 530 229 L 553 183 L 576 145 L 606 103 L 636 68 L 653 53 L 676 43 Z" fill="#4f121d" stroke="#4f121d" stroke-width="1" stroke-linejoin="round" fill-rule="evenodd"/>
</svg>